<?xml version="1.0" standalone="no"?>
<!DOCTYPE svg PUBLIC "-//W3C//DTD SVG 20010904//EN"
 "http://www.w3.org/TR/2001/REC-SVG-20010904/DTD/svg10.dtd">
<svg version="1.0" xmlns="http://www.w3.org/2000/svg"
 width="225.000000pt" height="225.000000pt" viewBox="0 0 225.000000 225.000000"
 preserveAspectRatio="xMidYMid meet">

<g transform="translate(0.000000,225.000000) scale(0.100000,-0.100000)"
fill="#000000" stroke="none">
<path d="M576 1954 c-4 -9 -5 -18 -4 -18 21 -12 198 -170 198 -177 0 -20 -22
-5 -119 77 -84 71 -104 84 -116 74 -8 -7 -15 -18 -15 -25 0 -7 46 -53 102
-101 113 -98 118 -129 6 -37 -39 32 -84 69 -100 81 -29 25 -62 23 -56 -2 3
-15 219 -203 280 -244 30 -19 46 -23 74 -19 52 9 89 -11 161 -84 l62 -64 -149
-119 c-177 -140 -220 -184 -220 -226 0 -41 36 -65 76 -50 16 6 102 84 191 172
l162 161 163 -155 c155 -146 208 -188 241 -188 22 0 47 34 47 65 0 36 -34 68
-235 218 -88 66 -158 122 -155 125 3 3 24 7 48 8 26 1 57 11 80 27 51 33 259
238 312 307 70 90 97 169 69 197 -13 13 7 30 -330 -277 -118 -107 -222 -201
-231 -209 -16 -12 -27 -6 -102 50 -88 67 -106 90 -106 139 0 15 -3 36 -6 45
-8 21 -293 265 -310 265 -6 0 -15 -7 -18 -16z m172 -336 c41 -27 96 -23 120 7
11 14 23 25 26 25 11 0 6 -39 -5 -46 -6 -3 1 -14 19 -24 17 -10 117 -102 224
-203 106 -101 220 -208 252 -236 80 -70 126 -80 126 -28 0 22 1 22 20 -3 52
-66 -9 -107 -81 -55 -19 14 -144 133 -279 264 -135 131 -255 243 -267 249 -12
7 -44 11 -71 10 -44 -2 -55 2 -103 39 -30 23 -72 58 -94 78 -27 25 -20 21 23
-12 34 -26 75 -56 90 -65z m682 -29 c-128 -123 -176 -154 -225 -146 -18 3 -38
0 -44 -6 -19 -19 -22 -2 -5 31 20 42 31 47 46 22 29 -46 86 -18 223 108 60 56
112 102 115 101 3 0 -47 -50 -110 -110z m-358 -246 c-11 -15 -86 -92 -166
-171 -123 -122 -149 -143 -172 -140 -32 4 -50 28 -40 53 6 17 8 17 25 1 30
-28 62 -6 219 148 81 79 149 143 151 141 2 -2 -6 -16 -17 -32z"/>
<path d="M1058 1213 c-57 -9 -58 -48 -2 -92 15 -12 25 -23 23 -25 -2 -1 -38
-8 -79 -15 -224 -35 -390 -217 -444 -486 l-13 -60 -86 -3 c-48 -1 -87 -6 -87
-11 0 -29 86 -69 170 -78 42 -4 60 -10 60 -20 0 -25 31 -61 62 -72 20 -7 179
-11 455 -11 472 0 471 0 495 66 10 29 15 32 70 38 72 7 142 36 157 65 11 20 9
20 -75 23 l-87 3 -19 80 c-10 44 -39 122 -64 173 -81 168 -204 264 -374 293
-41 7 -77 14 -79 15 -2 2 11 15 28 29 72 62 15 107 -111 88z m116 -19 c25 -9
19 -31 -14 -56 -17 -12 -30 -31 -30 -43 0 -20 7 -23 68 -28 81 -7 137 -27 215
-80 57 -38 130 -124 167 -197 26 -52 68 -180 72 -220 3 -34 2 -35 -31 -35
l-33 0 -34 103 c-65 198 -177 321 -334 366 -14 4 -2 -6 25 -22 99 -58 171
-162 213 -307 11 -38 22 -86 24 -105 l3 -35 -307 -3 -308 -2 0 55 c0 71 25
186 55 248 12 26 16 42 9 36 -32 -27 -82 -122 -115 -223 -36 -107 -38 -111
-68 -114 -38 -4 -39 9 -11 118 41 159 129 288 230 338 25 12 39 22 31 22 -8 0
-46 -16 -86 -35 -128 -61 -240 -215 -277 -379 -13 -58 -25 -73 -52 -63 -12 5
-12 14 1 64 32 124 118 272 191 330 110 87 178 106 355 101 123 -3 136 -5 198
-34 37 -18 86 -49 110 -69 38 -32 37 -31 -5 10 -100 95 -218 132 -384 122 -53
-3 -108 -9 -122 -11 -14 -3 -7 1 15 8 22 8 64 15 93 15 46 1 52 4 52 22 0 11
-13 32 -30 46 -32 26 -38 48 -17 56 18 8 113 8 131 1z m591 -705 c-22 -10 -58
-19 -80 -19 -65 -1 -83 -9 -95 -46 -7 -19 -20 -39 -30 -44 -12 -6 -187 -10
-459 -10 l-440 0 -20 26 c-12 15 -21 31 -21 35 0 5 129 9 286 9 224 0 285 3
281 13 -3 9 -81 12 -338 14 -319 2 -409 9 -425 34 -3 5 302 9 688 8 688 -1
693 -1 653 -20z"/>
<path d="M1053 1174 c-3 -8 1 -22 9 -31 14 -13 15 -11 14 16 -1 33 -13 41 -23
15z"/>
</g>
</svg>
